<svg id="Group_296" data-name="Group 296" xmlns="http://www.w3.org/2000/svg" width="14.936" height="14.936" viewBox="0 0 14.936 14.936">
  <g id="Group_295" data-name="Group 295">
    <path id="Path_188" data-name="Path 188" d="M41.047,30.4a2.116,2.116,0,0,0,0-2.994l-.054-.054a2.118,2.118,0,0,0-2.994,0l-3.515,3.515a.4.4,0,0,1-.569,0L30.4,27.35a2.116,2.116,0,0,0-2.994,0l-.054.054a2.118,2.118,0,0,0,0,2.994l3.515,3.515a.4.4,0,0,1,0,.569L27.35,38a2.116,2.116,0,0,0,0,2.994l.054.054a2.118,2.118,0,0,0,2.994,0l3.515-3.515a.4.4,0,0,1,.569,0L38,41.047a2.116,2.116,0,0,0,2.994,0l.054-.054a2.118,2.118,0,0,0,0-2.994l-3.515-3.515a.4.4,0,0,1,0-.569Z" transform="translate(-26.731 -26.731)" fill="#fff"/>
  </g>
</svg>
