<svg id="noun_edit_1072353" xmlns="http://www.w3.org/2000/svg" width="17" height="17" viewBox="0 0 17 17">
  <path id="Path_976" data-name="Path 976" d="M8.5,0A8.5,8.5,0,1,0,17,8.5,8.5,8.5,0,0,0,8.5,0Zm4.15,6.071a1.782,1.782,0,0,1-.387.8c-.057.066-.113.133-.175.193Q9.722,9.406,7.353,11.746a.456.456,0,0,1-.173.106q-1.209.391-2.419.776a.288.288,0,0,1-.408-.2.436.436,0,0,1,.019-.2c.231-.778.468-1.553.695-2.333a.918.918,0,0,1,.245-.411Q7.49,7.314,9.659,5.136a2.4,2.4,0,0,1,1.254-.787h.326c.006.033.011.012.017.013a1.758,1.758,0,0,1,1.148.8,1.4,1.4,0,0,1,.245.607v.3Z" fill="#0f253b"/>
</svg>
